<?xml version="1.0" standalone="no"?>
<!DOCTYPE svg PUBLIC "-//W3C//DTD SVG 20010904//EN"
 "http://www.w3.org/TR/2001/REC-SVG-20010904/DTD/svg10.dtd">
<svg version="1.0" xmlns="http://www.w3.org/2000/svg"
 width="512.000000pt" height="512.000000pt" viewBox="0 0 512.000000 512.000000"
 preserveAspectRatio="xMidYMid meet">

<g transform="translate(0.000000,512.000000) scale(0.100000,-0.100000)"
fill="#000000" stroke="none">
<path d="M2390 4574 c-288 -34 -521 -102 -743 -216 -720 -369 -1158 -1136
-1099 -1926 21 -278 82 -511 191 -737 111 -230 222 -387 401 -565 367 -368
832 -570 1345 -587 362 -11 643 47 960 202 585 284 993 824 1110 1470 22 122
31 423 16 556 -52 456 -243 865 -555 1187 -310 320 -697 524 -1136 597 -91 15
-416 28 -490 19z m322 -354 c569 -55 1070 -391 1326 -889 297 -575 246 -1243
-133 -1762 -83 -114 -252 -281 -365 -362 -135 -96 -367 -209 -515 -251 -591
-168 -1204 -9 -1635 423 -147 147 -236 269 -319 436 -104 209 -154 396 -172
642 -10 145 -8 193 12 343 118 862 933 1504 1801 1420z"/>
<path d="M2085 2936 c-5 -2 -44 -12 -85 -21 -158 -37 -333 -133 -464 -255 -35
-33 -69 -74 -76 -90 -18 -43 -8 -130 18 -168 33 -46 103 -76 159 -68 48 6 73
22 169 106 65 57 215 134 292 149 111 23 218 6 321 -50 31 -16 103 -72 159
-123 174 -156 313 -224 483 -234 187 -11 355 56 508 202 98 94 122 166 81 246
-40 78 -126 116 -205 90 -22 -7 -63 -38 -100 -75 -87 -86 -158 -120 -250 -120
-61 1 -79 6 -140 38 -39 21 -108 71 -152 111 -150 137 -238 191 -378 236 -53
17 -101 23 -200 26 -71 2 -134 2 -140 0z"/>
</g>
</svg>
